# xmcd CD database file
#
# Track frame offsets:
#	150
#	14116
#	24534
#	39264
#	53281
#	67848
#	80828
#	99942
#	113598
#
# Disc length: 1781 seconds
#
# Revision: 0
# Processed by: cddbd v1.5.2PL0 Copyright (c) Steve Scherf et al.
# Submitted via: CDex 1.70beta2
#
DISCID=6106f309
DTITLE=L. Schwieg, R. Salmon, G. Leclerc, C. Barkley, D. Stang, W. Fergusson- Cdn. - High Falls
DYEAR=1900
DGENRE=Country
TTITLE0=High Falls
TTITLE1=Little Sadie
TTITLE2=Early Morning Rain
TTITLE3=Why You Been Gone So Long
TTITLE4=Wild Mountain Flowers
TTITLE5=Bootleg Jon
TTITLE6=White Dove
TTITLE7=Big Spike Hammer
TTITLE8=Backtalk
EXTD=
EXTT0=
EXTT1=
EXTT2=
EXTT3=
EXTT4=
EXTT5=
EXTT6=
EXTT7=
EXTT8=
PLAYORDER=
